<?xml version="1.0" encoding="utf-8"?>
<!-- Generator: Adobe Illustrator 16.0.0, SVG Export Plug-In . SVG Version: 6.00 Build 0)  -->
<!DOCTYPE svg PUBLIC "-//W3C//DTD SVG 1.1//EN" "http://www.w3.org/Graphics/SVG/1.1/DTD/svg11.dtd">
<svg version="1.1" id="Layer_1" xmlns="http://www.w3.org/2000/svg" xmlns:xlink="http://www.w3.org/1999/xlink" x="0px" y="0px"
	 width="133px" height="266px" viewBox="0 0 133 266" enable-background="new 0 0 133 266" xml:space="preserve">
<g>
	<path fill="#FFFFFF" d="M91.736,184.693c5.561,3.172,7.938,9.469,5.311,14.051c-2.621,4.59-9.25,5.74-14.802,2.559
		c-5.556-3.168-7.938-9.469-5.317-14.059C79.557,182.666,86.189,181.514,91.736,184.693z"/>
	<path fill="#FFFFFF" d="M92.609,183.104c6.57,3.75,9.382,11.191,6.281,16.609c-3.104,5.43-10.938,6.781-17.5,3.031
		c-6.57-3.75-9.379-11.191-6.289-16.621C78.198,180.705,86.039,179.346,92.609,183.104L92.609,183.104z M63.238,175.764
		c-0.648,0.81-1.25,1.672-1.77,2.603c-6.668,11.68-0.609,27.69,13.521,35.758c9.57,5.469,20.398,5.897,28.461,1.987
		c3.852-1.858,7.07-4.723,9.219-8.487c6.66-11.681,0.609-27.69-13.529-35.763c-5.424-3.102-10.57-4.327-15.789-4.569l-43.521,0.004
		L17.43,189.674h31.582L63.238,175.764z"/>
	<path fill="#FFFFFF" d="M58.484,182.057l-10.641,10.41l-0.004-0.004c-5.328,12.402,1.25,27.344,13.77,34.633
		c12.622,7.353,27.559,5.648,35.309-3.19l6.949-6.949c-4.699,2.603-15.44,6.262-29.578-1.82
		c-14.129-8.069-19.531-22.211-15.809-33.077"/>
</g>
<g>
	<path fill="#1D8EC2" d="M91.736,51.693c5.561,3.172,7.938,9.469,5.311,14.051c-2.621,4.59-9.25,5.74-14.802,2.559
		c-5.556-3.168-7.938-9.469-5.317-14.059C79.557,49.666,86.189,48.514,91.736,51.693z"/>
	<path fill="#1D8EC2" d="M92.609,50.104c6.57,3.75,9.382,11.191,6.281,16.609c-3.104,5.43-10.938,6.781-17.5,3.031
		c-6.57-3.75-9.379-11.191-6.289-16.621C78.198,47.705,86.039,46.346,92.609,50.104L92.609,50.104z M63.238,42.764
		c-0.648,0.809-1.25,1.672-1.77,2.602c-6.668,11.68-0.609,27.691,13.521,35.758c9.57,5.469,20.398,5.898,28.461,1.988
		c3.852-1.859,7.07-4.723,9.219-8.488c6.66-11.68,0.609-27.691-13.529-35.762c-5.424-3.102-10.57-4.328-15.789-4.57l-43.521,0.004
		L17.43,56.674h31.582L63.238,42.764z"/>
	<path fill="#1D8EC2" d="M58.484,49.057l-10.641,10.41l-0.004-0.004c-5.328,12.402,1.25,27.344,13.77,34.633
		c12.622,7.352,27.559,5.648,35.309-3.191l6.949-6.949c-4.699,2.602-15.44,6.262-29.578-1.82
		C60.16,74.064,54.758,59.924,58.48,49.057"/>
</g>
</svg>
