<?xml version="1.0" encoding="utf-8"?>
<!-- Generator: Adobe Illustrator 16.0.0, SVG Export Plug-In . SVG Version: 6.00 Build 0)  -->
<!DOCTYPE svg PUBLIC "-//W3C//DTD SVG 1.1//EN" "http://www.w3.org/Graphics/SVG/1.1/DTD/svg11.dtd">
<svg version="1.1" id="Layer_1" xmlns="http://www.w3.org/2000/svg" xmlns:xlink="http://www.w3.org/1999/xlink" x="0px" y="0px"
	 width="133px" height="266px" viewBox="0 0 133 266" enable-background="new 0 0 133 266" xml:space="preserve">
<path fill="#1D8EC2" d="M93.619,49.326l-4.535,4.535c-0.324,0.324-0.75,0.488-1.175,0.488c-0.431,0-0.853-0.164-1.181-0.488
	c-0.652-0.652-0.652-1.707,0-2.359l4.53-4.531c0.652-0.652,1.707-0.652,2.359,0C94.271,47.624,94.271,48.674,93.619,49.326z
	 M82.287,60.658l-4.535,4.535c-0.324,0.324-0.75,0.488-1.176,0.488s-0.852-0.164-1.18-0.488c-0.648-0.652-0.648-1.707,0-2.359
	l4.535-4.531c0.647-0.652,1.702-0.652,2.354,0C82.939,58.951,82.939,60.006,82.287,60.658z M70.951,71.99l-2.355,2.36
	c-0.324,0.323-0.75,0.487-1.176,0.487c-0.432,0-0.854-0.164-1.182-0.487c-0.65-0.653-0.65-1.707,0-2.36l2.357-2.354
	c0.651-0.652,1.706-0.652,2.354,0C71.604,70.287,71.604,71.343,70.951,71.99 M47.42,37.576c0,0.922-0.746,1.664-1.668,1.664
	s-1.668-0.742-1.668-1.664v-6.43c0-0.922,0.746-1.668,1.668-1.668s1.668,0.746,1.668,1.668V37.576z M47.42,53.646
	c0,0.922-0.746,1.668-1.668,1.668s-1.668-0.746-1.668-1.668v-6.43c0-0.921,0.746-1.667,1.668-1.667s1.668,0.746,1.668,1.667V53.646z
	 M47.42,69.716c0,0.923-0.746,1.669-1.668,1.669s-1.668-0.746-1.668-1.669v-6.425c0-0.923,0.746-1.669,1.668-1.669
	s1.668,0.746,1.668,1.669V69.716z M47.42,85.79c0,0.922-0.746,1.664-1.668,1.664s-1.668-0.742-1.668-1.664v-6.429
	c0-0.922,0.746-1.668,1.668-1.668s1.668,0.746,1.668,1.668V85.79z M47.42,101.86c0,0.921-0.746,1.669-1.668,1.669
	s-1.668-0.747-1.668-1.669v-6.43c0-0.923,0.746-1.668,1.668-1.668s1.668,0.745,1.668,1.668V101.86z M118.096,53.133l-14.145-14.141
	l-3.535,3.535c-0.324,0.324-0.75,0.488-1.18,0.488c-0.426,0-0.853-0.164-1.176-0.488c-0.651-0.652-0.651-1.707,0-2.359l3.535-3.532
	L87.45,22.491c-0.648-0.651-1.703-0.651-2.354,0L69.083,38.504V18.168c0-0.922-0.746-1.668-1.664-1.668h-20v5
	c0,0.922-0.746,1.668-1.668,1.668s-1.668-0.746-1.668-1.668v-5h-20c-0.918,0-1.664,0.746-1.664,1.668v96.667
	c0,0.918,0.746,1.664,1.664,1.664h20v-5c0-0.922,0.746-1.664,1.668-1.664s1.668,0.742,1.668,1.664v5h20
	c0.918,0,1.664-0.746,1.664-1.664v-10.337l49.013-49.012C118.743,54.839,118.743,53.784,118.096,53.133L118.096,53.133z"/>
<path fill="#FFFFFF" d="M93.619,182.326l-4.535,4.535c-0.324,0.324-0.75,0.488-1.175,0.488c-0.431,0-0.853-0.164-1.181-0.488
	c-0.652-0.652-0.652-1.707,0-2.359l4.53-4.531c0.652-0.65,1.707-0.65,2.359,0C94.271,180.623,94.271,181.674,93.619,182.326z
	 M82.287,193.658l-4.535,4.535c-0.324,0.324-0.75,0.488-1.176,0.488s-0.852-0.164-1.18-0.488c-0.648-0.652-0.648-1.707,0-2.359
	l4.535-4.531c0.647-0.652,1.702-0.652,2.354,0C82.939,191.951,82.939,193.006,82.287,193.658z M70.951,204.99l-2.355,2.359
	c-0.324,0.323-0.75,0.487-1.176,0.487c-0.432,0-0.854-0.164-1.182-0.487c-0.65-0.652-0.65-1.707,0-2.359l2.357-2.354
	c0.651-0.651,1.706-0.651,2.354,0C71.604,203.287,71.604,204.343,70.951,204.99 M47.42,170.576c0,0.922-0.746,1.664-1.668,1.664
	s-1.668-0.742-1.668-1.664v-6.43c0-0.922,0.746-1.668,1.668-1.668s1.668,0.746,1.668,1.668V170.576z M47.42,186.646
	c0,0.922-0.746,1.668-1.668,1.668s-1.668-0.746-1.668-1.668v-6.431c0-0.922,0.746-1.668,1.668-1.668s1.668,0.746,1.668,1.668
	V186.646z M47.42,202.716c0,0.923-0.746,1.669-1.668,1.669s-1.668-0.746-1.668-1.669v-6.425c0-0.923,0.746-1.669,1.668-1.669
	s1.668,0.746,1.668,1.669V202.716z M47.42,218.79c0,0.922-0.746,1.664-1.668,1.664s-1.668-0.742-1.668-1.664v-6.429
	c0-0.922,0.746-1.668,1.668-1.668s1.668,0.746,1.668,1.668V218.79z M47.42,234.859c0,0.922-0.746,1.67-1.668,1.67
	s-1.668-0.747-1.668-1.67v-6.43c0-0.923,0.746-1.668,1.668-1.668s1.668,0.745,1.668,1.668V234.859z M118.096,186.133l-14.145-14.141
	l-3.535,3.535c-0.324,0.324-0.75,0.488-1.18,0.488c-0.426,0-0.853-0.164-1.176-0.488c-0.651-0.652-0.651-1.707,0-2.359l3.535-3.531
	L87.45,155.491c-0.648-0.651-1.703-0.651-2.354,0l-16.013,16.013v-20.336c0-0.922-0.746-1.668-1.664-1.668h-20v5
	c0,0.922-0.746,1.668-1.668,1.668s-1.668-0.746-1.668-1.668v-5h-20c-0.918,0-1.664,0.746-1.664,1.668v96.668
	c0,0.918,0.746,1.664,1.664,1.664h20v-5c0-0.922,0.746-1.664,1.668-1.664s1.668,0.742,1.668,1.664v5h20
	c0.918,0,1.664-0.746,1.664-1.664v-10.337l49.013-49.013C118.743,187.84,118.743,186.784,118.096,186.133L118.096,186.133z"/>
</svg>
