<?xml version="1.0" encoding="utf-8"?>
<!-- Generator: Adobe Illustrator 16.0.0, SVG Export Plug-In . SVG Version: 6.00 Build 0)  -->
<!DOCTYPE svg PUBLIC "-//W3C//DTD SVG 1.1//EN" "http://www.w3.org/Graphics/SVG/1.1/DTD/svg11.dtd">
<svg version="1.1" id="Layer_1" xmlns="http://www.w3.org/2000/svg" xmlns:xlink="http://www.w3.org/1999/xlink" x="0px" y="0px"
	 width="133px" height="266px" viewBox="0 0 133 266" enable-background="new 0 0 133 266" xml:space="preserve">
<g>
	<path fill="#1D8EC2" d="M83.168,48.735c0-11.523-6.738-16.488-6.738-16.488H56.57c0,0-6.738,4.965-6.738,16.488
		c0,11.522,6.031,12.633,4.434,17.598c-1.594,4.965-4.434,19.812-4.434,27.082c0,7.27,1.953,18.75,8.336,18.75h16.668
		c6.383,0,8.332-11.48,8.332-18.75c0-7.271-2.836-22.117-4.434-27.082S83.168,60.259,83.168,48.735"/>
	<rect x="56.568" y="20.501" fill="#1D8EC2" width="19.86" height="10.184"/>
</g>
<g>
	<path fill="#FFFFFF" d="M83.168,181.902c0-11.523-6.738-16.488-6.738-16.488H56.57c0,0-6.738,4.965-6.738,16.488
		s6.031,12.633,4.434,17.598c-1.594,4.965-4.434,19.813-4.434,27.082s1.953,18.75,8.336,18.75h16.668
		c6.383,0,8.332-11.48,8.332-18.75s-2.836-22.117-4.434-27.082S83.168,193.426,83.168,181.902"/>
	<rect x="56.568" y="153.668" fill="#FFFFFF" width="19.86" height="10.184"/>
</g>
</svg>
